<mxfile host="app.diagrams.net" agent="Mozilla/5.0 (Windows NT 10.0; Win64; x64) AppleWebKit/537.36 (KHTML, like Gecko) Chrome/127.0.0.0 Safari/537.36" version="24.7.6">
  <diagram name="Page-1" id="e7e014a7-5840-1c2e-5031-d8a46d1fe8dd">
    <mxGraphModel dx="2204" dy="3080" grid="1" gridSize="10" guides="1" tooltips="1" connect="1" arrows="1" fold="1" page="1" pageScale="1" pageWidth="1169" pageHeight="826" background="none" math="0" shadow="0">
      <root>
        <mxCell id="0" />
        <mxCell id="1" parent="0" />
        <mxCell id="2" value="CLIENTE" style="swimlane;whiteSpace=wrap;startSize=23;fillColor=#09555B;strokeColor=#BAC8D3;labelBackgroundColor=none;fontColor=#EEEEEE;" parent="1" vertex="1">
          <mxGeometry x="164.5" y="128" width="280" height="570" as="geometry" />
        </mxCell>
        <mxCell id="5" value="" style="ellipse;shape=startState;fillColor=#09555B;strokeColor=#BAC8D3;labelBackgroundColor=none;fontColor=#EEEEEE;" parent="2" vertex="1">
          <mxGeometry x="100" y="40" width="30" height="30" as="geometry" />
        </mxCell>
        <mxCell id="6" value="" style="edgeStyle=elbowEdgeStyle;elbow=horizontal;verticalAlign=bottom;endArrow=open;endSize=8;strokeColor=#0B4D6A;endFill=1;rounded=0;labelBackgroundColor=none;fontColor=default;" parent="2" source="5" edge="1">
          <mxGeometry x="100" y="40" as="geometry">
            <mxPoint x="115.5" y="110" as="targetPoint" />
          </mxGeometry>
        </mxCell>
        <mxCell id="GLRKMn68qCk0zSHGL9mv-42" value="Selecciona producto" style="strokeWidth=2;html=1;shape=mxgraph.flowchart.terminator;whiteSpace=wrap;fillColor=#09555B;strokeColor=#BAC8D3;labelBackgroundColor=none;fontColor=#EEEEEE;" vertex="1" parent="2">
          <mxGeometry x="40" y="112" width="150" height="40" as="geometry" />
        </mxCell>
        <mxCell id="GLRKMn68qCk0zSHGL9mv-48" value="Confirma pedido" style="strokeWidth=2;html=1;shape=mxgraph.flowchart.terminator;whiteSpace=wrap;fillColor=#09555B;strokeColor=#BAC8D3;labelBackgroundColor=none;fontColor=#EEEEEE;" vertex="1" parent="2">
          <mxGeometry x="40" y="222" width="150" height="40" as="geometry" />
        </mxCell>
        <mxCell id="3" value="ALMACEN" style="swimlane;whiteSpace=wrap;fillColor=#09555B;strokeColor=#BAC8D3;labelBackgroundColor=none;fontColor=#EEEEEE;" parent="1" vertex="1">
          <mxGeometry x="444.5" y="128" width="280" height="570" as="geometry" />
        </mxCell>
        <mxCell id="38" value="" style="ellipse;shape=endState;fillColor=#09555B;strokeColor=#BAC8D3;labelBackgroundColor=none;fontColor=#EEEEEE;" parent="3" vertex="1">
          <mxGeometry x="125.5" y="342" width="30" height="30" as="geometry" />
        </mxCell>
        <mxCell id="GLRKMn68qCk0zSHGL9mv-45" value="Verifica stock" style="strokeWidth=2;html=1;shape=mxgraph.flowchart.terminator;whiteSpace=wrap;fillColor=#09555B;strokeColor=#BAC8D3;labelBackgroundColor=none;fontColor=#EEEEEE;" vertex="1" parent="3">
          <mxGeometry x="65.5" y="112" width="150" height="40" as="geometry" />
        </mxCell>
        <mxCell id="GLRKMn68qCk0zSHGL9mv-54" style="edgeStyle=orthogonalEdgeStyle;rounded=0;orthogonalLoop=1;jettySize=auto;html=1;labelBackgroundColor=none;strokeColor=#0B4D6A;fontColor=default;" edge="1" parent="3" source="GLRKMn68qCk0zSHGL9mv-49" target="38">
          <mxGeometry relative="1" as="geometry" />
        </mxCell>
        <mxCell id="GLRKMn68qCk0zSHGL9mv-49" value="Confirma pedido" style="strokeWidth=2;html=1;shape=mxgraph.flowchart.terminator;whiteSpace=wrap;fillColor=#09555B;strokeColor=#BAC8D3;labelBackgroundColor=none;fontColor=#EEEEEE;" vertex="1" parent="3">
          <mxGeometry x="65.5" y="222" width="150" height="40" as="geometry" />
        </mxCell>
        <mxCell id="GLRKMn68qCk0zSHGL9mv-43" value="" style="html=1;overflow=block;blockSpacing=1;whiteSpace=wrap;shape=image;fontSize=13;spacing=0;strokeColor=none;strokeOpacity=100;rounded=1;absoluteArcSize=1;arcSize=12;strokeWidth=0;image=https://images.lucid.app/images/fa8e6075-e88b-4422-9192-2d6f32c575b4/content;imageAspect=0;lucidId=6BeSeH99jEg4;labelBackgroundColor=none;fillColor=#09555B;fontColor=#EEEEEE;" vertex="1" parent="1">
          <mxGeometry x="29.5" y="160" width="131" height="86" as="geometry" />
        </mxCell>
        <mxCell id="GLRKMn68qCk0zSHGL9mv-44" value="&lt;font color=&quot;#09555b&quot;&gt;GESTIONAR PEDIDO&lt;/font&gt;" style="html=1;overflow=block;blockSpacing=1;whiteSpace=wrap;fontSize=13;fontColor=#EEEEEE;align=center;spacing=0;strokeColor=#BAC8D3;fillOpacity=0;rounded=1;absoluteArcSize=1;arcSize=12;fillColor=#09555B;strokeWidth=NaN;lucidId=6BeSlnCFW9wQ;labelBackgroundColor=none;" vertex="1" parent="1">
          <mxGeometry x="29.5" y="246" width="135" height="30" as="geometry" />
        </mxCell>
        <mxCell id="GLRKMn68qCk0zSHGL9mv-47" style="edgeStyle=orthogonalEdgeStyle;rounded=0;orthogonalLoop=1;jettySize=auto;html=1;labelBackgroundColor=none;strokeColor=#0B4D6A;fontColor=default;" edge="1" parent="1" source="GLRKMn68qCk0zSHGL9mv-42" target="GLRKMn68qCk0zSHGL9mv-45">
          <mxGeometry relative="1" as="geometry" />
        </mxCell>
        <mxCell id="GLRKMn68qCk0zSHGL9mv-50" style="rounded=0;orthogonalLoop=1;jettySize=auto;html=1;entryX=1;entryY=0.5;entryDx=0;entryDy=0;entryPerimeter=0;labelBackgroundColor=none;strokeColor=#0B4D6A;fontColor=default;" edge="1" parent="1" target="GLRKMn68qCk0zSHGL9mv-48">
          <mxGeometry relative="1" as="geometry">
            <mxPoint x="500" y="270" as="sourcePoint" />
          </mxGeometry>
        </mxCell>
        <mxCell id="GLRKMn68qCk0zSHGL9mv-52" style="edgeStyle=orthogonalEdgeStyle;rounded=0;orthogonalLoop=1;jettySize=auto;html=1;entryX=0;entryY=0.5;entryDx=0;entryDy=0;entryPerimeter=0;labelBackgroundColor=none;strokeColor=#0B4D6A;fontColor=default;" edge="1" parent="1" source="GLRKMn68qCk0zSHGL9mv-48" target="GLRKMn68qCk0zSHGL9mv-49">
          <mxGeometry relative="1" as="geometry" />
        </mxCell>
        <mxCell id="GLRKMn68qCk0zSHGL9mv-55" value="" style="html=1;overflow=block;blockSpacing=1;whiteSpace=wrap;shape=image;fontSize=13;spacing=0;strokeColor=none;strokeOpacity=100;rounded=1;absoluteArcSize=1;arcSize=12;strokeWidth=0;image=https://images.lucid.app/images/fa8e6075-e88b-4422-9192-2d6f32c575b4/content;imageAspect=0;lucidId=Q7eSO~~QiPgY;labelBackgroundColor=none;fillColor=#09555B;fontColor=#EEEEEE;" vertex="1" parent="1">
          <mxGeometry x="-1090" y="-2334" width="131" height="86" as="geometry" />
        </mxCell>
        <mxCell id="GLRKMn68qCk0zSHGL9mv-56" value="&lt;font color=&quot;#09555b&quot;&gt;ATENCION RESERVA&lt;/font&gt;" style="html=1;overflow=block;blockSpacing=1;whiteSpace=wrap;fontSize=13;fontColor=#EEEEEE;align=center;spacing=0;strokeColor=#BAC8D3;fillOpacity=0;rounded=1;absoluteArcSize=1;arcSize=12;fillColor=#09555B;strokeWidth=NaN;lucidId=Q7eS9gPbLePO;labelBackgroundColor=none;" vertex="1" parent="1">
          <mxGeometry x="-1090" y="-2248" width="135" height="30" as="geometry" />
        </mxCell>
        <mxCell id="GLRKMn68qCk0zSHGL9mv-66" value="CLIENTE" style="swimlane;whiteSpace=wrap;startSize=23;labelBackgroundColor=none;fillColor=#09555B;strokeColor=#BAC8D3;fontColor=#EEEEEE;" vertex="1" parent="1">
          <mxGeometry x="-956" y="-2360" width="276" height="660" as="geometry" />
        </mxCell>
        <mxCell id="GLRKMn68qCk0zSHGL9mv-67" value="" style="ellipse;shape=startState;fillColor=#09555B;strokeColor=#BAC8D3;labelBackgroundColor=none;fontColor=#EEEEEE;" vertex="1" parent="GLRKMn68qCk0zSHGL9mv-66">
          <mxGeometry x="100" y="40" width="30" height="30" as="geometry" />
        </mxCell>
        <mxCell id="GLRKMn68qCk0zSHGL9mv-68" value="" style="edgeStyle=elbowEdgeStyle;elbow=horizontal;verticalAlign=bottom;endArrow=open;endSize=8;strokeColor=#0B4D6A;endFill=1;rounded=0;labelBackgroundColor=none;fontColor=default;" edge="1" parent="GLRKMn68qCk0zSHGL9mv-66" source="GLRKMn68qCk0zSHGL9mv-67">
          <mxGeometry x="100" y="40" as="geometry">
            <mxPoint x="115.5" y="110" as="targetPoint" />
          </mxGeometry>
        </mxCell>
        <mxCell id="GLRKMn68qCk0zSHGL9mv-69" value="Solicita reserva" style="strokeWidth=2;html=1;shape=mxgraph.flowchart.terminator;whiteSpace=wrap;labelBackgroundColor=none;fillColor=#09555B;strokeColor=#BAC8D3;fontColor=#EEEEEE;" vertex="1" parent="GLRKMn68qCk0zSHGL9mv-66">
          <mxGeometry x="40" y="112" width="150" height="40" as="geometry" />
        </mxCell>
        <mxCell id="GLRKMn68qCk0zSHGL9mv-70" value="Otorga datos" style="strokeWidth=2;html=1;shape=mxgraph.flowchart.terminator;whiteSpace=wrap;labelBackgroundColor=none;fillColor=#09555B;strokeColor=#BAC8D3;fontColor=#EEEEEE;" vertex="1" parent="GLRKMn68qCk0zSHGL9mv-66">
          <mxGeometry x="40" y="190" width="150" height="40" as="geometry" />
        </mxCell>
        <mxCell id="GLRKMn68qCk0zSHGL9mv-79" value="Confirma la mesa" style="strokeWidth=2;html=1;shape=mxgraph.flowchart.terminator;whiteSpace=wrap;labelBackgroundColor=none;fillColor=#09555B;strokeColor=#BAC8D3;fontColor=#EEEEEE;" vertex="1" parent="GLRKMn68qCk0zSHGL9mv-66">
          <mxGeometry x="40" y="265" width="150" height="40" as="geometry" />
        </mxCell>
        <mxCell id="GLRKMn68qCk0zSHGL9mv-81" value="Confirma la fecha y hora" style="strokeWidth=2;html=1;shape=mxgraph.flowchart.terminator;whiteSpace=wrap;labelBackgroundColor=none;fillColor=#09555B;strokeColor=#BAC8D3;fontColor=#EEEEEE;" vertex="1" parent="GLRKMn68qCk0zSHGL9mv-66">
          <mxGeometry x="40" y="340" width="150" height="40" as="geometry" />
        </mxCell>
        <mxCell id="GLRKMn68qCk0zSHGL9mv-95" style="edgeStyle=orthogonalEdgeStyle;rounded=0;orthogonalLoop=1;jettySize=auto;html=1;entryX=0.5;entryY=0;entryDx=0;entryDy=0;labelBackgroundColor=none;strokeColor=#0B4D6A;fontColor=default;" edge="1" parent="GLRKMn68qCk0zSHGL9mv-66" source="GLRKMn68qCk0zSHGL9mv-86" target="GLRKMn68qCk0zSHGL9mv-72">
          <mxGeometry relative="1" as="geometry" />
        </mxCell>
        <mxCell id="GLRKMn68qCk0zSHGL9mv-86" value="Recibe código de confirmación" style="strokeWidth=2;html=1;shape=mxgraph.flowchart.terminator;whiteSpace=wrap;labelBackgroundColor=none;fillColor=#09555B;strokeColor=#BAC8D3;fontColor=#EEEEEE;" vertex="1" parent="GLRKMn68qCk0zSHGL9mv-66">
          <mxGeometry x="46" y="420" width="150" height="40" as="geometry" />
        </mxCell>
        <mxCell id="GLRKMn68qCk0zSHGL9mv-72" value="" style="ellipse;shape=endState;fillColor=#09555B;strokeColor=#BAC8D3;labelBackgroundColor=none;fontColor=#EEEEEE;" vertex="1" parent="GLRKMn68qCk0zSHGL9mv-66">
          <mxGeometry x="106" y="520" width="30" height="30" as="geometry" />
        </mxCell>
        <mxCell id="GLRKMn68qCk0zSHGL9mv-159" value="ADMNISTRADOR" style="swimlane;whiteSpace=wrap;startSize=23;labelBackgroundColor=none;fillColor=#09555B;strokeColor=#BAC8D3;fontColor=#EEEEEE;" vertex="1" parent="GLRKMn68qCk0zSHGL9mv-66">
          <mxGeometry x="-24" y="740" width="280" height="570" as="geometry" />
        </mxCell>
        <mxCell id="GLRKMn68qCk0zSHGL9mv-179" style="edgeStyle=orthogonalEdgeStyle;rounded=0;orthogonalLoop=1;jettySize=auto;html=1;strokeColor=#0B4D6A;" edge="1" parent="GLRKMn68qCk0zSHGL9mv-159" source="GLRKMn68qCk0zSHGL9mv-163" target="GLRKMn68qCk0zSHGL9mv-167">
          <mxGeometry relative="1" as="geometry" />
        </mxCell>
        <mxCell id="GLRKMn68qCk0zSHGL9mv-163" value="Recibe reporte" style="strokeWidth=2;html=1;shape=mxgraph.flowchart.terminator;whiteSpace=wrap;labelBackgroundColor=none;fillColor=#09555B;strokeColor=#BAC8D3;fontColor=#EEEEEE;" vertex="1" parent="GLRKMn68qCk0zSHGL9mv-159">
          <mxGeometry x="50" y="265" width="150" height="40" as="geometry" />
        </mxCell>
        <mxCell id="GLRKMn68qCk0zSHGL9mv-166" style="edgeStyle=orthogonalEdgeStyle;rounded=0;orthogonalLoop=1;jettySize=auto;html=1;entryX=0.5;entryY=0;entryDx=0;entryDy=0;labelBackgroundColor=none;strokeColor=#0B4D6A;fontColor=default;" edge="1" parent="GLRKMn68qCk0zSHGL9mv-159" source="GLRKMn68qCk0zSHGL9mv-167" target="GLRKMn68qCk0zSHGL9mv-168">
          <mxGeometry relative="1" as="geometry" />
        </mxCell>
        <mxCell id="GLRKMn68qCk0zSHGL9mv-167" value="Lo sube a la base de datos" style="strokeWidth=2;html=1;shape=mxgraph.flowchart.terminator;whiteSpace=wrap;labelBackgroundColor=none;fillColor=#09555B;strokeColor=#BAC8D3;fontColor=#EEEEEE;" vertex="1" parent="GLRKMn68qCk0zSHGL9mv-159">
          <mxGeometry x="50" y="361" width="150" height="40" as="geometry" />
        </mxCell>
        <mxCell id="GLRKMn68qCk0zSHGL9mv-168" value="" style="ellipse;shape=endState;fillColor=#09555B;strokeColor=#BAC8D3;labelBackgroundColor=none;fontColor=#EEEEEE;" vertex="1" parent="GLRKMn68qCk0zSHGL9mv-159">
          <mxGeometry x="110" y="470" width="30" height="30" as="geometry" />
        </mxCell>
        <mxCell id="GLRKMn68qCk0zSHGL9mv-169" value="ALMACENERO" style="swimlane;whiteSpace=wrap;labelBackgroundColor=none;fillColor=#09555B;strokeColor=#BAC8D3;fontColor=#EEEEEE;" vertex="1" parent="GLRKMn68qCk0zSHGL9mv-66">
          <mxGeometry x="256" y="740" width="280" height="570" as="geometry" />
        </mxCell>
        <mxCell id="GLRKMn68qCk0zSHGL9mv-177" style="edgeStyle=orthogonalEdgeStyle;rounded=0;orthogonalLoop=1;jettySize=auto;html=1;strokeColor=#0B4D6A;" edge="1" parent="GLRKMn68qCk0zSHGL9mv-169" source="GLRKMn68qCk0zSHGL9mv-170" target="GLRKMn68qCk0zSHGL9mv-171">
          <mxGeometry relative="1" as="geometry" />
        </mxCell>
        <mxCell id="GLRKMn68qCk0zSHGL9mv-170" value="Recibe productos" style="strokeWidth=2;html=1;shape=mxgraph.flowchart.terminator;whiteSpace=wrap;labelBackgroundColor=none;fillColor=#09555B;strokeColor=#BAC8D3;fontColor=#EEEEEE;" vertex="1" parent="GLRKMn68qCk0zSHGL9mv-169">
          <mxGeometry x="56" y="112" width="150" height="40" as="geometry" />
        </mxCell>
        <mxCell id="GLRKMn68qCk0zSHGL9mv-181" style="edgeStyle=orthogonalEdgeStyle;rounded=0;orthogonalLoop=1;jettySize=auto;html=1;strokeColor=#0B4D6A;" edge="1" parent="GLRKMn68qCk0zSHGL9mv-169" source="GLRKMn68qCk0zSHGL9mv-171" target="GLRKMn68qCk0zSHGL9mv-172">
          <mxGeometry relative="1" as="geometry" />
        </mxCell>
        <mxCell id="GLRKMn68qCk0zSHGL9mv-171" value="Contabiliza productos" style="strokeWidth=2;html=1;shape=mxgraph.flowchart.terminator;whiteSpace=wrap;labelBackgroundColor=none;fillColor=#09555B;strokeColor=#BAC8D3;fontColor=#EEEEEE;" vertex="1" parent="GLRKMn68qCk0zSHGL9mv-169">
          <mxGeometry x="56" y="190" width="150" height="40" as="geometry" />
        </mxCell>
        <mxCell id="GLRKMn68qCk0zSHGL9mv-172" value="Genera reporte de inventario" style="strokeWidth=2;html=1;shape=mxgraph.flowchart.terminator;whiteSpace=wrap;labelBackgroundColor=none;fillColor=#09555B;strokeColor=#BAC8D3;fontColor=#EEEEEE;" vertex="1" parent="GLRKMn68qCk0zSHGL9mv-169">
          <mxGeometry x="56" y="265" width="150" height="40" as="geometry" />
        </mxCell>
        <mxCell id="GLRKMn68qCk0zSHGL9mv-160" value="" style="ellipse;shape=startState;fillColor=#09555B;strokeColor=#BAC8D3;labelBackgroundColor=none;fontColor=#EEEEEE;" vertex="1" parent="GLRKMn68qCk0zSHGL9mv-169">
          <mxGeometry x="116" y="40" width="30" height="30" as="geometry" />
        </mxCell>
        <mxCell id="GLRKMn68qCk0zSHGL9mv-176" style="edgeStyle=orthogonalEdgeStyle;rounded=0;orthogonalLoop=1;jettySize=auto;html=1;entryX=0.5;entryY=0;entryDx=0;entryDy=0;entryPerimeter=0;strokeColor=#0B4D6A;" edge="1" parent="GLRKMn68qCk0zSHGL9mv-169" source="GLRKMn68qCk0zSHGL9mv-160" target="GLRKMn68qCk0zSHGL9mv-170">
          <mxGeometry relative="1" as="geometry" />
        </mxCell>
        <mxCell id="GLRKMn68qCk0zSHGL9mv-178" style="edgeStyle=orthogonalEdgeStyle;rounded=0;orthogonalLoop=1;jettySize=auto;html=1;strokeColor=#0B4D6A;" edge="1" parent="GLRKMn68qCk0zSHGL9mv-66" source="GLRKMn68qCk0zSHGL9mv-172" target="GLRKMn68qCk0zSHGL9mv-163">
          <mxGeometry relative="1" as="geometry" />
        </mxCell>
        <mxCell id="GLRKMn68qCk0zSHGL9mv-71" value="CAJA" style="swimlane;whiteSpace=wrap;labelBackgroundColor=none;fillColor=#09555B;strokeColor=#BAC8D3;fontColor=#EEEEEE;" vertex="1" parent="1">
          <mxGeometry x="-680" y="-2360" width="280" height="660" as="geometry" />
        </mxCell>
        <mxCell id="GLRKMn68qCk0zSHGL9mv-73" value="Solicita datos" style="strokeWidth=2;html=1;shape=mxgraph.flowchart.terminator;whiteSpace=wrap;labelBackgroundColor=none;fillColor=#09555B;strokeColor=#BAC8D3;fontColor=#EEEEEE;" vertex="1" parent="GLRKMn68qCk0zSHGL9mv-71">
          <mxGeometry x="65.5" y="112" width="150" height="40" as="geometry" />
        </mxCell>
        <mxCell id="GLRKMn68qCk0zSHGL9mv-75" value="Solicita mesa" style="strokeWidth=2;html=1;shape=mxgraph.flowchart.terminator;whiteSpace=wrap;labelBackgroundColor=none;fillColor=#09555B;strokeColor=#BAC8D3;fontColor=#EEEEEE;" vertex="1" parent="GLRKMn68qCk0zSHGL9mv-71">
          <mxGeometry x="65.5" y="190" width="150" height="40" as="geometry" />
        </mxCell>
        <mxCell id="GLRKMn68qCk0zSHGL9mv-80" value="Solicita fecha y hora" style="strokeWidth=2;html=1;shape=mxgraph.flowchart.terminator;whiteSpace=wrap;labelBackgroundColor=none;fillColor=#09555B;strokeColor=#BAC8D3;fontColor=#EEEEEE;" vertex="1" parent="GLRKMn68qCk0zSHGL9mv-71">
          <mxGeometry x="65.5" y="265" width="150" height="40" as="geometry" />
        </mxCell>
        <mxCell id="GLRKMn68qCk0zSHGL9mv-93" style="edgeStyle=orthogonalEdgeStyle;rounded=0;orthogonalLoop=1;jettySize=auto;html=1;labelBackgroundColor=none;strokeColor=#0B4D6A;fontColor=default;" edge="1" parent="GLRKMn68qCk0zSHGL9mv-71" source="GLRKMn68qCk0zSHGL9mv-82" target="GLRKMn68qCk0zSHGL9mv-85">
          <mxGeometry relative="1" as="geometry" />
        </mxCell>
        <mxCell id="GLRKMn68qCk0zSHGL9mv-82" value="Confirma fecha y pago" style="strokeWidth=2;html=1;shape=mxgraph.flowchart.terminator;whiteSpace=wrap;labelBackgroundColor=none;fillColor=#09555B;strokeColor=#BAC8D3;fontColor=#EEEEEE;" vertex="1" parent="GLRKMn68qCk0zSHGL9mv-71">
          <mxGeometry x="65.5" y="340" width="150" height="40" as="geometry" />
        </mxCell>
        <mxCell id="GLRKMn68qCk0zSHGL9mv-85" value="Genera có&lt;span style=&quot;color: rgba(0, 0, 0, 0); font-family: monospace; font-size: 0px; text-align: start; text-wrap: nowrap;&quot;&gt;%3CmxGraphModel%3E%3Croot%3E%3CmxCell%20id%3D%220%22%2F%3E%3CmxCell%20id%3D%221%22%20parent%3D%220%22%2F%3E%3CmxCell%20id%3D%222%22%20value%3D%22Confirma%20fecha%20y%20pago%22%20style%3D%22strokeWidth%3D2%3Bhtml%3D1%3Bshape%3Dmxgraph.flowchart.terminator%3BwhiteSpace%3Dwrap%3B%22%20vertex%3D%221%22%20parent%3D%221%22%3E%3CmxGeometry%20x%3D%22-610.5%22%20y%3D%22-2020%22%20width%3D%22150%22%20height%3D%2240%22%20as%3D%22geometry%22%2F%3E%3C%2FmxCell%3E%3C%2Froot%3E%3C%2FmxGraphModel%3E&lt;/span&gt;digo&lt;span style=&quot;color: rgba(0, 0, 0, 0); font-family: monospace; font-size: 0px; text-align: start; text-wrap: nowrap;&quot;&gt;%3CmxGraphModel%3E%3Croot%3E%3CmxCell%20id%3D%220%22%2F%3E%3CmxCell%20id%3D%221%22%20parent%3D%220%22%2F%3E%3CmxCell%20id%3D%222%22%20value%3D%22Confirma%20fecha%20y%20pago%22%20style%3D%22strokeWidth%3D2%3Bhtml%3D1%3Bshape%3Dmxgraph.flowchart.terminator%3BwhiteSpace%3Dwrap%3B%22%20vertex%3D%221%22%20parent%3D%221%22%3E%3CmxGeometry%20x%3D%22-610.5%22%20y%3D%22-2020%22%20width%3D%22150%22%20height%3D%2240%22%20as%3D%22geometry%22%2F%3E%3C%2FmxCell%3E%3C%2Froot%3E%3C%2FmxGraphModel%3E&lt;/span&gt;&amp;nbsp;de reserva" style="strokeWidth=2;html=1;shape=mxgraph.flowchart.terminator;whiteSpace=wrap;labelBackgroundColor=none;fillColor=#09555B;strokeColor=#BAC8D3;fontColor=#EEEEEE;" vertex="1" parent="GLRKMn68qCk0zSHGL9mv-71">
          <mxGeometry x="65.5" y="420" width="150" height="40" as="geometry" />
        </mxCell>
        <mxCell id="GLRKMn68qCk0zSHGL9mv-76" style="edgeStyle=orthogonalEdgeStyle;rounded=0;orthogonalLoop=1;jettySize=auto;html=1;labelBackgroundColor=none;strokeColor=#0B4D6A;fontColor=default;" edge="1" parent="1" source="GLRKMn68qCk0zSHGL9mv-69" target="GLRKMn68qCk0zSHGL9mv-73">
          <mxGeometry relative="1" as="geometry" />
        </mxCell>
        <mxCell id="GLRKMn68qCk0zSHGL9mv-77" style="rounded=0;orthogonalLoop=1;jettySize=auto;html=1;entryX=1;entryY=0.5;entryDx=0;entryDy=0;entryPerimeter=0;labelBackgroundColor=none;strokeColor=#0B4D6A;fontColor=default;" edge="1" parent="1" target="GLRKMn68qCk0zSHGL9mv-70">
          <mxGeometry relative="1" as="geometry">
            <mxPoint x="-620.5" y="-2218" as="sourcePoint" />
          </mxGeometry>
        </mxCell>
        <mxCell id="GLRKMn68qCk0zSHGL9mv-78" style="edgeStyle=orthogonalEdgeStyle;rounded=0;orthogonalLoop=1;jettySize=auto;html=1;entryX=0;entryY=0.5;entryDx=0;entryDy=0;entryPerimeter=0;labelBackgroundColor=none;strokeColor=#0B4D6A;fontColor=default;" edge="1" parent="1" source="GLRKMn68qCk0zSHGL9mv-70" target="GLRKMn68qCk0zSHGL9mv-75">
          <mxGeometry relative="1" as="geometry" />
        </mxCell>
        <mxCell id="GLRKMn68qCk0zSHGL9mv-87" style="rounded=0;orthogonalLoop=1;jettySize=auto;html=1;entryX=1;entryY=0.5;entryDx=0;entryDy=0;entryPerimeter=0;labelBackgroundColor=none;strokeColor=#0B4D6A;fontColor=default;" edge="1" parent="1" target="GLRKMn68qCk0zSHGL9mv-79">
          <mxGeometry relative="1" as="geometry">
            <mxPoint x="-620" y="-2140" as="sourcePoint" />
          </mxGeometry>
        </mxCell>
        <mxCell id="GLRKMn68qCk0zSHGL9mv-88" style="edgeStyle=orthogonalEdgeStyle;rounded=0;orthogonalLoop=1;jettySize=auto;html=1;entryX=0;entryY=0.5;entryDx=0;entryDy=0;entryPerimeter=0;labelBackgroundColor=none;strokeColor=#0B4D6A;fontColor=default;" edge="1" parent="1" source="GLRKMn68qCk0zSHGL9mv-79" target="GLRKMn68qCk0zSHGL9mv-80">
          <mxGeometry relative="1" as="geometry" />
        </mxCell>
        <mxCell id="GLRKMn68qCk0zSHGL9mv-89" style="rounded=0;orthogonalLoop=1;jettySize=auto;html=1;entryX=1;entryY=0.325;entryDx=0;entryDy=0;entryPerimeter=0;exitX=0;exitY=0.5;exitDx=0;exitDy=0;exitPerimeter=0;labelBackgroundColor=none;strokeColor=#0B4D6A;fontColor=default;" edge="1" parent="1" source="GLRKMn68qCk0zSHGL9mv-80" target="GLRKMn68qCk0zSHGL9mv-81">
          <mxGeometry relative="1" as="geometry" />
        </mxCell>
        <mxCell id="GLRKMn68qCk0zSHGL9mv-90" style="edgeStyle=orthogonalEdgeStyle;rounded=0;orthogonalLoop=1;jettySize=auto;html=1;entryX=0;entryY=0.5;entryDx=0;entryDy=0;entryPerimeter=0;labelBackgroundColor=none;strokeColor=#0B4D6A;fontColor=default;" edge="1" parent="1" source="GLRKMn68qCk0zSHGL9mv-81" target="GLRKMn68qCk0zSHGL9mv-82">
          <mxGeometry relative="1" as="geometry" />
        </mxCell>
        <mxCell id="GLRKMn68qCk0zSHGL9mv-94" style="edgeStyle=orthogonalEdgeStyle;rounded=0;orthogonalLoop=1;jettySize=auto;html=1;labelBackgroundColor=none;strokeColor=#0B4D6A;fontColor=default;" edge="1" parent="1" source="GLRKMn68qCk0zSHGL9mv-85" target="GLRKMn68qCk0zSHGL9mv-86">
          <mxGeometry relative="1" as="geometry" />
        </mxCell>
        <mxCell id="GLRKMn68qCk0zSHGL9mv-96" value="" style="html=1;overflow=block;blockSpacing=1;whiteSpace=wrap;shape=image;fontSize=13;spacing=0;strokeColor=none;strokeOpacity=100;rounded=1;absoluteArcSize=1;arcSize=12;strokeWidth=0;image=https://images.lucid.app/images/fa8e6075-e88b-4422-9192-2d6f32c575b4/content;imageAspect=0;lucidId=tSMTW7e4IacW;labelBackgroundColor=none;fillColor=#09555B;fontColor=#EEEEEE;" vertex="1" parent="1">
          <mxGeometry x="42" y="-2380" width="131" height="86" as="geometry" />
        </mxCell>
        <mxCell id="GLRKMn68qCk0zSHGL9mv-97" value="&lt;font color=&quot;#09555b&quot;&gt;ATENCION PAGO&lt;/font&gt;" style="html=1;overflow=block;blockSpacing=1;whiteSpace=wrap;fontSize=13;fontColor=#EEEEEE;align=center;spacing=0;strokeColor=#BAC8D3;fillOpacity=0;rounded=1;absoluteArcSize=1;arcSize=12;fillColor=#09555B;strokeWidth=NaN;lucidId=tSMTjnNpelu6;labelBackgroundColor=none;" vertex="1" parent="1">
          <mxGeometry x="40" y="-2294" width="135" height="30" as="geometry" />
        </mxCell>
        <mxCell id="GLRKMn68qCk0zSHGL9mv-121" value="CLIENTE" style="swimlane;whiteSpace=wrap;startSize=23;labelBackgroundColor=none;fillColor=#09555B;strokeColor=#BAC8D3;fontColor=#EEEEEE;" vertex="1" parent="1">
          <mxGeometry x="180" y="-2410" width="280" height="570" as="geometry" />
        </mxCell>
        <mxCell id="GLRKMn68qCk0zSHGL9mv-122" value="" style="ellipse;shape=startState;fillColor=#09555B;strokeColor=#BAC8D3;labelBackgroundColor=none;fontColor=#EEEEEE;" vertex="1" parent="GLRKMn68qCk0zSHGL9mv-121">
          <mxGeometry x="100" y="40" width="30" height="30" as="geometry" />
        </mxCell>
        <mxCell id="GLRKMn68qCk0zSHGL9mv-123" value="" style="edgeStyle=elbowEdgeStyle;elbow=horizontal;verticalAlign=bottom;endArrow=open;endSize=8;strokeColor=#0B4D6A;endFill=1;rounded=0;labelBackgroundColor=none;fontColor=default;" edge="1" parent="GLRKMn68qCk0zSHGL9mv-121" source="GLRKMn68qCk0zSHGL9mv-122">
          <mxGeometry x="100" y="40" as="geometry">
            <mxPoint x="115.5" y="110" as="targetPoint" />
          </mxGeometry>
        </mxCell>
        <mxCell id="GLRKMn68qCk0zSHGL9mv-124" value="Solicita cuenta" style="strokeWidth=2;html=1;shape=mxgraph.flowchart.terminator;whiteSpace=wrap;labelBackgroundColor=none;fillColor=#09555B;strokeColor=#BAC8D3;fontColor=#EEEEEE;" vertex="1" parent="GLRKMn68qCk0zSHGL9mv-121">
          <mxGeometry x="40" y="112" width="150" height="40" as="geometry" />
        </mxCell>
        <mxCell id="GLRKMn68qCk0zSHGL9mv-125" value="Solicita pagar" style="strokeWidth=2;html=1;shape=mxgraph.flowchart.terminator;whiteSpace=wrap;labelBackgroundColor=none;fillColor=#09555B;strokeColor=#BAC8D3;fontColor=#EEEEEE;" vertex="1" parent="GLRKMn68qCk0zSHGL9mv-121">
          <mxGeometry x="40" y="190" width="150" height="40" as="geometry" />
        </mxCell>
        <mxCell id="GLRKMn68qCk0zSHGL9mv-129" value="Otorga dni y razón social" style="strokeWidth=2;html=1;shape=mxgraph.flowchart.terminator;whiteSpace=wrap;labelBackgroundColor=none;fillColor=#09555B;strokeColor=#BAC8D3;fontColor=#EEEEEE;" vertex="1" parent="GLRKMn68qCk0zSHGL9mv-121">
          <mxGeometry x="46" y="340" width="150" height="40" as="geometry" />
        </mxCell>
        <mxCell id="GLRKMn68qCk0zSHGL9mv-131" value="CAJA" style="swimlane;whiteSpace=wrap;labelBackgroundColor=none;fillColor=#09555B;strokeColor=#BAC8D3;fontColor=#EEEEEE;" vertex="1" parent="1">
          <mxGeometry x="460" y="-2410" width="280" height="570" as="geometry" />
        </mxCell>
        <mxCell id="GLRKMn68qCk0zSHGL9mv-132" value="Entrega monto consumido" style="strokeWidth=2;html=1;shape=mxgraph.flowchart.terminator;whiteSpace=wrap;labelBackgroundColor=none;fillColor=#09555B;strokeColor=#BAC8D3;fontColor=#EEEEEE;" vertex="1" parent="GLRKMn68qCk0zSHGL9mv-131">
          <mxGeometry x="65.5" y="112" width="150" height="40" as="geometry" />
        </mxCell>
        <mxCell id="GLRKMn68qCk0zSHGL9mv-154" style="edgeStyle=orthogonalEdgeStyle;rounded=0;orthogonalLoop=1;jettySize=auto;html=1;labelBackgroundColor=none;strokeColor=#0B4D6A;fontColor=default;" edge="1" parent="GLRKMn68qCk0zSHGL9mv-131" source="GLRKMn68qCk0zSHGL9mv-133" target="GLRKMn68qCk0zSHGL9mv-148">
          <mxGeometry relative="1" as="geometry" />
        </mxCell>
        <mxCell id="GLRKMn68qCk0zSHGL9mv-133" value="Solicita boleta o factura" style="strokeWidth=2;html=1;shape=mxgraph.flowchart.terminator;whiteSpace=wrap;labelBackgroundColor=none;fillColor=#09555B;strokeColor=#BAC8D3;fontColor=#EEEEEE;" vertex="1" parent="GLRKMn68qCk0zSHGL9mv-131">
          <mxGeometry x="65.5" y="190" width="150" height="40" as="geometry" />
        </mxCell>
        <mxCell id="GLRKMn68qCk0zSHGL9mv-135" style="rounded=0;orthogonalLoop=1;jettySize=auto;html=1;labelBackgroundColor=none;strokeColor=#0B4D6A;fontColor=default;" edge="1" parent="GLRKMn68qCk0zSHGL9mv-131" source="GLRKMn68qCk0zSHGL9mv-136" target="GLRKMn68qCk0zSHGL9mv-137">
          <mxGeometry relative="1" as="geometry" />
        </mxCell>
        <mxCell id="GLRKMn68qCk0zSHGL9mv-136" value="Entrega boleta" style="strokeWidth=2;html=1;shape=mxgraph.flowchart.terminator;whiteSpace=wrap;labelBackgroundColor=none;fillColor=#09555B;strokeColor=#BAC8D3;fontColor=#EEEEEE;" vertex="1" parent="GLRKMn68qCk0zSHGL9mv-131">
          <mxGeometry x="160" y="347.5" width="110" height="25" as="geometry" />
        </mxCell>
        <mxCell id="GLRKMn68qCk0zSHGL9mv-137" value="Genera có&lt;span style=&quot;color: rgba(0, 0, 0, 0); font-family: monospace; font-size: 0px; text-align: start; text-wrap: nowrap;&quot;&gt;%3CmxGraphModel%3E%3Croot%3E%3CmxCell%20id%3D%220%22%2F%3E%3CmxCell%20id%3D%221%22%20parent%3D%220%22%2F%3E%3CmxCell%20id%3D%222%22%20value%3D%22Confirma%20fecha%20y%20pago%22%20style%3D%22strokeWidth%3D2%3Bhtml%3D1%3Bshape%3Dmxgraph.flowchart.terminator%3BwhiteSpace%3Dwrap%3B%22%20vertex%3D%221%22%20parent%3D%221%22%3E%3CmxGeometry%20x%3D%22-610.5%22%20y%3D%22-2020%22%20width%3D%22150%22%20height%3D%2240%22%20as%3D%22geometry%22%2F%3E%3C%2FmxCell%3E%3C%2Froot%3E%3C%2FmxGraphModel%3E&lt;/span&gt;digo&lt;span style=&quot;color: rgba(0, 0, 0, 0); font-family: monospace; font-size: 0px; text-align: start; text-wrap: nowrap;&quot;&gt;%3CmxGraphModel%3E%3Croot%3E%3CmxCell%20id%3D%220%22%2F%3E%3CmxCell%20id%3D%221%22%20parent%3D%220%22%2F%3E%3CmxCell%20id%3D%222%22%20value%3D%22Confirma%20fecha%20y%20pago%22%20style%3D%22strokeWidth%3D2%3Bhtml%3D1%3Bshape%3Dmxgraph.flowchart.terminator%3BwhiteSpace%3Dwrap%3B%22%20vertex%3D%221%22%20parent%3D%221%22%3E%3CmxGeometry%20x%3D%22-610.5%22%20y%3D%22-2020%22%20width%3D%22150%22%20height%3D%2240%22%20as%3D%22geometry%22%2F%3E%3C%2FmxCell%3E%3C%2Froot%3E%3C%2FmxGraphModel%3E&lt;/span&gt;&amp;nbsp;de reserva" style="strokeWidth=2;html=1;shape=mxgraph.flowchart.terminator;whiteSpace=wrap;labelBackgroundColor=none;fillColor=#09555B;strokeColor=#BAC8D3;fontColor=#EEEEEE;" vertex="1" parent="GLRKMn68qCk0zSHGL9mv-131">
          <mxGeometry x="65.5" y="420" width="150" height="40" as="geometry" />
        </mxCell>
        <mxCell id="GLRKMn68qCk0zSHGL9mv-149" style="rounded=0;orthogonalLoop=1;jettySize=auto;html=1;labelBackgroundColor=none;strokeColor=#0B4D6A;fontColor=default;" edge="1" parent="GLRKMn68qCk0zSHGL9mv-131" source="GLRKMn68qCk0zSHGL9mv-148" target="GLRKMn68qCk0zSHGL9mv-136">
          <mxGeometry relative="1" as="geometry" />
        </mxCell>
        <mxCell id="GLRKMn68qCk0zSHGL9mv-152" value="&lt;font color=&quot;#09555b&quot;&gt;BOLETA&lt;/font&gt;" style="edgeLabel;html=1;align=center;verticalAlign=middle;resizable=0;points=[];labelBackgroundColor=none;fontColor=#EEEEEE;" vertex="1" connectable="0" parent="GLRKMn68qCk0zSHGL9mv-149">
          <mxGeometry x="-0.1773" y="4" relative="1" as="geometry">
            <mxPoint as="offset" />
          </mxGeometry>
        </mxCell>
        <mxCell id="GLRKMn68qCk0zSHGL9mv-148" value="" style="strokeWidth=2;html=1;shape=mxgraph.flowchart.decision;whiteSpace=wrap;labelBackgroundColor=none;fillColor=#09555B;strokeColor=#BAC8D3;fontColor=#EEEEEE;" vertex="1" parent="GLRKMn68qCk0zSHGL9mv-131">
          <mxGeometry x="108.25" y="256.25" width="64.5" height="57.5" as="geometry" />
        </mxCell>
        <mxCell id="GLRKMn68qCk0zSHGL9mv-153" style="rounded=0;orthogonalLoop=1;jettySize=auto;html=1;labelBackgroundColor=none;strokeColor=#0B4D6A;fontColor=default;" edge="1" parent="GLRKMn68qCk0zSHGL9mv-131" source="GLRKMn68qCk0zSHGL9mv-127" target="GLRKMn68qCk0zSHGL9mv-137">
          <mxGeometry relative="1" as="geometry" />
        </mxCell>
        <mxCell id="GLRKMn68qCk0zSHGL9mv-127" value="Solicita ruc" style="strokeWidth=2;html=1;shape=mxgraph.flowchart.terminator;whiteSpace=wrap;labelBackgroundColor=none;fillColor=#09555B;strokeColor=#BAC8D3;fontColor=#EEEEEE;" vertex="1" parent="GLRKMn68qCk0zSHGL9mv-131">
          <mxGeometry y="345" width="110" height="30" as="geometry" />
        </mxCell>
        <mxCell id="GLRKMn68qCk0zSHGL9mv-150" style="rounded=0;orthogonalLoop=1;jettySize=auto;html=1;entryX=0.558;entryY=0.056;entryDx=0;entryDy=0;entryPerimeter=0;labelBackgroundColor=none;strokeColor=#0B4D6A;fontColor=default;" edge="1" parent="GLRKMn68qCk0zSHGL9mv-131" source="GLRKMn68qCk0zSHGL9mv-148" target="GLRKMn68qCk0zSHGL9mv-127">
          <mxGeometry relative="1" as="geometry" />
        </mxCell>
        <mxCell id="GLRKMn68qCk0zSHGL9mv-151" value="&lt;font color=&quot;#09555b&quot;&gt;FACTURA&lt;/font&gt;" style="edgeLabel;html=1;align=center;verticalAlign=middle;resizable=0;points=[];labelBackgroundColor=none;fontColor=#EEEEEE;" vertex="1" connectable="0" parent="GLRKMn68qCk0zSHGL9mv-150">
          <mxGeometry x="-0.1476" y="2" relative="1" as="geometry">
            <mxPoint as="offset" />
          </mxGeometry>
        </mxCell>
        <mxCell id="GLRKMn68qCk0zSHGL9mv-130" value="" style="ellipse;shape=endState;fillColor=#09555B;strokeColor=#BAC8D3;labelBackgroundColor=none;fontColor=#EEEEEE;" vertex="1" parent="GLRKMn68qCk0zSHGL9mv-131">
          <mxGeometry x="125.5" y="520" width="30" height="30" as="geometry" />
        </mxCell>
        <mxCell id="GLRKMn68qCk0zSHGL9mv-155" style="rounded=0;orthogonalLoop=1;jettySize=auto;html=1;entryX=0.5;entryY=0;entryDx=0;entryDy=0;labelBackgroundColor=none;strokeColor=#0B4D6A;fontColor=default;" edge="1" parent="GLRKMn68qCk0zSHGL9mv-131" source="GLRKMn68qCk0zSHGL9mv-137" target="GLRKMn68qCk0zSHGL9mv-130">
          <mxGeometry relative="1" as="geometry">
            <mxPoint x="143" y="528" as="targetPoint" />
          </mxGeometry>
        </mxCell>
        <mxCell id="GLRKMn68qCk0zSHGL9mv-138" style="edgeStyle=orthogonalEdgeStyle;rounded=0;orthogonalLoop=1;jettySize=auto;html=1;labelBackgroundColor=none;strokeColor=#0B4D6A;fontColor=default;" edge="1" parent="1" source="GLRKMn68qCk0zSHGL9mv-124" target="GLRKMn68qCk0zSHGL9mv-132">
          <mxGeometry relative="1" as="geometry" />
        </mxCell>
        <mxCell id="GLRKMn68qCk0zSHGL9mv-139" style="rounded=0;orthogonalLoop=1;jettySize=auto;html=1;entryX=1;entryY=0.5;entryDx=0;entryDy=0;entryPerimeter=0;labelBackgroundColor=none;strokeColor=#0B4D6A;fontColor=default;" edge="1" parent="1" target="GLRKMn68qCk0zSHGL9mv-125">
          <mxGeometry relative="1" as="geometry">
            <mxPoint x="515.5" y="-2268" as="sourcePoint" />
          </mxGeometry>
        </mxCell>
        <mxCell id="GLRKMn68qCk0zSHGL9mv-140" style="edgeStyle=orthogonalEdgeStyle;rounded=0;orthogonalLoop=1;jettySize=auto;html=1;entryX=0;entryY=0.5;entryDx=0;entryDy=0;entryPerimeter=0;labelBackgroundColor=none;strokeColor=#0B4D6A;fontColor=default;" edge="1" parent="1" source="GLRKMn68qCk0zSHGL9mv-125" target="GLRKMn68qCk0zSHGL9mv-133">
          <mxGeometry relative="1" as="geometry" />
        </mxCell>
        <mxCell id="GLRKMn68qCk0zSHGL9mv-156" style="edgeStyle=orthogonalEdgeStyle;rounded=0;orthogonalLoop=1;jettySize=auto;html=1;labelBackgroundColor=none;strokeColor=#0B4D6A;fontColor=default;" edge="1" parent="1" source="GLRKMn68qCk0zSHGL9mv-127" target="GLRKMn68qCk0zSHGL9mv-129">
          <mxGeometry relative="1" as="geometry" />
        </mxCell>
        <mxCell id="GLRKMn68qCk0zSHGL9mv-157" value="" style="html=1;overflow=block;blockSpacing=1;whiteSpace=wrap;shape=image;fontSize=13;spacing=0;strokeColor=none;strokeOpacity=100;rounded=1;absoluteArcSize=1;arcSize=12;strokeWidth=0;image=https://images.lucid.app/images/fa8e6075-e88b-4422-9192-2d6f32c575b4/content;imageAspect=0;lucidId=pZeSSo~7SVou;" vertex="1" parent="1">
          <mxGeometry x="-1110" y="-1590" width="131" height="86" as="geometry" />
        </mxCell>
        <mxCell id="GLRKMn68qCk0zSHGL9mv-158" value="&lt;font color=&quot;#09555b&quot;&gt;&lt;b&gt;REPORTE DE INVENTARIO&lt;/b&gt;&lt;/font&gt;" style="html=1;overflow=block;blockSpacing=1;whiteSpace=wrap;fontSize=13;fontColor=default;align=center;spacing=0;strokeColor=#unset;fillOpacity=0;rounded=1;absoluteArcSize=1;arcSize=12;fillColor=#ffffff;strokeWidth=NaN;lucidId=pZeS7yJ1iqLA;" vertex="1" parent="1">
          <mxGeometry x="-1110" y="-1501" width="135" height="32" as="geometry" />
        </mxCell>
      </root>
    </mxGraphModel>
  </diagram>
</mxfile>
